<?xml version="1.0" encoding="utf-8"?>
<!-- Generator: Adobe Illustrator 19.1.0, SVG Export Plug-In . SVG Version: 6.00 Build 0)  -->
<svg version="1.1" id="Capa_1" xmlns="http://www.w3.org/2000/svg" xmlns:xlink="http://www.w3.org/1999/xlink" x="0px" y="0px"
	 viewBox="-36 -223 512 412" style="enable-background:new -36 -223 512 412;" xml:space="preserve">
<style type="text/css">
	.st0{fill:#FEAE00;}
	.st1{fill:#FFFFFF;}
</style>
<polygon class="st0" points="475.8,-222 220,189 -35.8,-222 "/>
<g>
	<path class="st1" d="M268.8-149.2c12,0,21.8-9.8,21.8-21.8c0-1-0.1-1.9-0.2-2.9l2.5,0c2.9-0.1,6.1-2.1,7.4-4.8l2.1-4.4
		c0.8-1.7,0.7-3.4-0.1-4.7c-0.9-1.4-2.4-2.1-4.2-2.1l-18.3,0c-3.2-1.9-6.9-2.9-10.9-2.9c-12,0-21.8,9.8-21.8,21.8
		C247-159,256.8-149.2,268.8-149.2z"/>
	<path class="st1" d="M319.5-92.6l-25.4-46.2c-1.8-3.2-4-5.8-9.8-5.8h-25.9c-3.6,0-6.5,2.7-7.2,3.4l-13.9,14.6
		c-2.3,2.4-4.5,6.7-5.2,9.9l-5.7,27.4c-0.1,0.4-0.1,0.8-0.1,1.1l-14.5,55.9H128c-4.2,0-7.7,3.4-7.7,7.7c0,1.8,0.6,3.5,1.7,4.8
		c-1.6,2.7-2.5,5.8-2.5,9.2c0,10,8.1,18.1,18.1,18.1c10,0,18.1-8.1,18.1-18.1c0-2.2-0.4-4.3-1.1-6.3h33.8c-0.7,2-1.1,4.1-1.1,6.3
		c0,10,8.1,18.1,18.1,18.1c10,0,18.1-8.1,18.1-18.1c0-3-0.8-5.9-2.1-8.4c2.2-1.6,3.9-3.9,4.6-6.6l15.2-58.8c0.4-0.6,0.7-1.3,0.9-2
		l6.2-21.1c0.4-1.4,1.4-3.3,2.6-4.9v35.1L233.8-4.7c-1.5,6.3,2.4,12.7,8.6,14.4l0.2,0c1,0.3,2,0.4,3,0.4c0,0,0,0,0,0
		c5.3,0,9.9-3.6,11.1-8.8l15.5-66.3l6,16.4c1.7,4.5,3.5,12.4,4,17.1l3.2,31.2c0.6,5.5,4.9,9.5,10.3,9.5c0.9,0,1.8-0.1,2.7-0.3l0.2,0
		c6.1-1.5,10.5-7.8,9.7-14.1l-4.8-38.1c-0.7-5.2-2.7-13.4-4.6-18.3L292-79.4c-0.1-0.2-0.1-0.3-0.2-0.4v-26.7l13,23.1
		c1.3,2.3,3.7,3.8,6.4,3.8c1.4,0,2.8-0.4,4-1.2l1.7-1.1C320.3-84.2,321.5-89,319.5-92.6z M205.2-16.6c3.3,0,6,2.7,6,6s-2.7,6-6,6
		c-3.3,0-6-2.7-6-6S201.9-16.6,205.2-16.6z M137.6-4.6c-3.3,0-6-2.7-6-6s2.7-6,6-6c3.3,0,6,2.7,6,6S140.9-4.6,137.6-4.6z"/>
	<path class="st1" d="M126.3-44.2h75.8c3.1,0,5.6-2.5,5.6-5.6v-51.5c0-3.1-2.5-5.6-5.6-5.6h-75.8c-3.1,0-5.6,2.5-5.6,5.6v51.5
		C120.7-46.7,123.2-44.2,126.3-44.2z"/>
</g>
</svg>
