<?xml version="1.0" encoding="utf-8"?>
<!-- Generator: Adobe Illustrator 19.1.0, SVG Export Plug-In . SVG Version: 6.00 Build 0)  -->
<svg version="1.1" id="Capa_1" xmlns="http://www.w3.org/2000/svg" xmlns:xlink="http://www.w3.org/1999/xlink" x="0px" y="0px"
	 viewBox="-36 -223 512 412" style="enable-background:new -36 -223 512 412;" xml:space="preserve">
<style type="text/css">
	.st0{fill:#FF702C;}
	.st1{fill:#FFFFFF;}
</style>
<polygon class="st0" points="-35.8,189 220,-222 475.8,189 "/>
<g>
	<path class="st1" d="M158.2,63.6v-6h-13.7v6c0,0.5,0.4,0.9,0.9,0.9h12.9C158.2,64.2,158.2,63.9,158.2,63.6z"/>
	<path class="st1" d="M179.7,43.9c-0.5,0-0.9,0.4-0.9,0.9v6h13.7v-7c-0.3,0-0.6,0.1-0.9,0.1H179.7z"/>
	<path class="st1" d="M158.2,37v-6c0-0.3,0.1-0.6,0.1-0.9h-12.9c-0.5,0-0.9,0.4-0.9,0.9v6H158.2z"/>
	<path class="st1" d="M178.8,57.6v6c0,0.3-0.1,0.6-0.1,0.9h12.9c0.5,0,0.9-0.4,0.9-0.9v-6H178.8z"/>
	<path class="st1" d="M308.5-4.2h-177c-8,0-14.5,6.5-14.5,14.5v122.1c0,8,6.5,14.5,14.5,14.5h177.1c8,0,14.5-6.5,14.5-14.5V10.3
		C323,2.3,316.5-4.2,308.5-4.2z M137.6,31c0-4.3,3.5-7.7,7.7-7.7h20.6h25.7c4.3,0,7.7,3.5,7.7,7.7v5.1v27.5c0,4.3-3.5,7.7-7.7,7.7
		H171h-5.1h-20.6c-4.3,0-7.7-3.5-7.7-7.7L137.6,31L137.6,31z M144.5,119.4H141c-1.9,0-3.4-1.5-3.4-3.4s1.5-3.4,3.4-3.4h3.4
		c1.9,0,3.4,1.5,3.4,3.4S146.4,119.4,144.5,119.4z M165.1,119.4h-6.9c-1.9,0-3.4-1.5-3.4-3.4s1.5-3.4,3.4-3.4h6.9
		c1.9,0,3.4,1.5,3.4,3.4S167,119.4,165.1,119.4z M171.9,102.3H141c-1.9,0-3.4-1.5-3.4-3.4s1.5-3.4,3.4-3.4h30.9
		c1.9,0,3.4,1.5,3.4,3.4C175.4,100.7,173.8,102.3,171.9,102.3z M182.2,119.4h-3.4c-1.9,0-3.4-1.5-3.4-3.4s1.5-3.4,3.4-3.4h3.4
		c1.9,0,3.4,1.5,3.4,3.4S184.1,119.4,182.2,119.4z M202.8,119.4H196c-1.9,0-3.4-1.5-3.4-3.4s1.5-3.4,3.4-3.4h6.9
		c1.9,0,3.4,1.5,3.4,3.4S204.7,119.4,202.8,119.4z M219,118.4c-0.7,0.6-1.5,1-2.4,1s-1.8-0.4-2.4-1c-0.6-0.7-1-1.5-1-2.4
		s0.4-1.8,1-2.4c1.2-1.3,3.6-1.3,4.9,0c0.6,0.7,1,1.5,1,2.4C220,116.9,219.6,117.8,219,118.4z M216.6,102.3h-30.9
		c-1.9,0-3.4-1.5-3.4-3.4s1.5-3.4,3.4-3.4h30.9c1.9,0,3.4,1.5,3.4,3.4C220,100.7,218.5,102.3,216.6,102.3z M281.8,129.7
		c-4.4,0-8.5-1.2-12-3.3c-3.5,2.1-7.6,3.3-12,3.3c-13.3,0-24-10.8-24-24s10.8-24,24-24c4.4,0,8.5,1.2,12,3.3c3.5-2.1,7.6-3.3,12-3.3
		c13.3,0,24,10.8,24,24S295.1,129.7,281.8,129.7z"/>
	<path class="st1" d="M281.8,88.5c-2.2,0-4.2,0.4-6.1,1.2c3.8,4.3,6.1,9.8,6.1,16s-2.3,11.7-6.1,16c1.9,0.7,4,1.2,6.1,1.2
		c9.5,0,17.2-7.7,17.2-17.2S291.3,88.5,281.8,88.5z"/>
	<rect x="144.5" y="43.9" class="st1" width="13.7" height="6.9"/>
	<path class="st1" d="M165.1,31v32.6c0,0.5,0.4,0.9,0.9,0.9h5.1c0.5,0,0.9-0.4,0.9-0.9V44.8c0-4.3,3.5-7.7,7.7-7.7h12
		c0.5,0,0.9-0.4,0.9-0.9V31c0-0.5-0.4-0.9-0.9-0.9H166C165.5,30.2,165.1,30.5,165.1,31z"/>
	<path class="st1" d="M257.8,105.7c0-6.1,2.3-11.7,6.1-16c-1.9-0.7-4-1.2-6.1-1.2c-9.5,0-17.2,7.7-17.2,17.2s7.7,17.2,17.2,17.2
		c2.2,0,4.2-0.4,6.1-1.2C260.1,117.4,257.8,111.8,257.8,105.7z"/>
	<path class="st1" d="M264.6,105.7c0,4.8,2,9.1,5.2,12.2c3.2-3.1,5.2-7.4,5.2-12.2s-2-9.1-5.2-12.2
		C266.6,96.6,264.6,100.9,264.6,105.7z"/>
</g>
</svg>
