<?xml version="1.0" encoding="utf-8"?>
<!-- Generator: Adobe Illustrator 19.1.0, SVG Export Plug-In . SVG Version: 6.00 Build 0)  -->
<svg version="1.1" id="Capa_1" xmlns="http://www.w3.org/2000/svg" xmlns:xlink="http://www.w3.org/1999/xlink" x="0px" y="0px"
	 viewBox="-36 -223 512 412" style="enable-background:new -36 -223 512 412;" xml:space="preserve">
<style type="text/css">
	.st0{fill:#07C192;}
	.st1{fill:#FFFFFF;}
</style>
<polygon class="st0" points="-35.8,189 220,-222 475.8,189 "/>
<g>
	<path class="st1" d="M220-15.3c9.3,0,17.3-5.9,20.2-14.6c-5.5,1.5-12.5,2.4-20.2,2.4s-14.7-0.9-20.2-2.4
		C202.8-21.2,210.8-15.3,220-15.3z"/>
	<path class="st1" d="M326.8-4.6c-0.4-1.2-1.4-2.3-2.5-2.8l-40.9-18.8c-8.7-2.9-17.5-5.3-26.4-7c-0.3-0.1-0.6-0.1-0.9-0.1
		c-2.2,0-4.2,1.5-4.7,3.8c-3.3,14.4-16,25.1-31.3,25.1c-15.4,0-28.1-10.7-31.3-25.1c-0.5-2.2-2.5-3.8-4.7-3.8c-0.3,0-0.6,0-0.9,0.1
		c-8.9,1.7-17.8,4-26.5,7L115.8-7.4c-1.2,0.6-2.1,1.6-2.5,2.8c-0.4,1.2-0.4,2.6,0.3,3.8l17.7,35c0.8,1.7,2.5,2.7,4.3,2.7
		c0.5,0,0.9-0.1,1.4-0.2l19.7-5.8v117.3c0,2.7,2.2,4.8,4.8,4.8h117.1c2.7,0,4.8-2.2,4.8-4.8V30.8l19.7,5.8c0.5,0.1,0.9,0.2,1.4,0.2
		c1.8,0,3.5-1,4.3-2.7l17.7-35C327.1-2,327.2-3.3,326.8-4.6z"/>
</g>
</svg>
