<?xml version="1.0" encoding="utf-8"?>
<!-- Generator: Adobe Illustrator 19.1.0, SVG Export Plug-In . SVG Version: 6.00 Build 0)  -->
<svg version="1.1" id="Capa_1" xmlns="http://www.w3.org/2000/svg" xmlns:xlink="http://www.w3.org/1999/xlink" x="0px" y="0px"
	 viewBox="-41 214.3 512 412.6" style="enable-background:new -41 214.3 512 412.6;" xml:space="preserve">
<style type="text/css">
	.st0{fill:#EE3C57;}
	.st1{fill:#FFFFFF;}
	.st2{enable-background:new    ;}
</style>
<polygon class="st0" points="470.8,214.9 215,625.9 -40.8,214.9 "/>
<circle class="st1" cx="215" cy="357.1" r="116.8"/>
<g class="st2">
	<path class="st0" d="M137.9,387.5h-16v-60h35.4v13h-19.5V352h18v13h-18V387.5z"/>
	<path class="st0" d="M183.4,365.7v21.8h-16.2v-60h19.6c16.3,0,24.4,5.9,24.4,17.7c0,6.9-3.4,12.3-10.2,16.1l17.5,26.1h-18.4
		l-12.7-21.8H183.4z M183.4,353.5h3c5.7,0,8.5-2.5,8.5-7.5c0-4.1-2.8-6.2-8.3-6.2h-3.2V353.5z"/>
	<path class="st0" d="M259.7,387.5h-35.6v-60h35.6v13h-19.4v9.4h18v13h-18v11.3h19.4V387.5z"/>
	<path class="st0" d="M305.8,387.5h-35.6v-60h35.6v13h-19.4v9.4h18v13h-18v11.3h19.4V387.5z"/>
</g>
</svg>
